<?xml version="1.0" encoding="utf-8"?>
<!-- Generator: Adobe Illustrator 18.1.0, SVG Export Plug-In . SVG Version: 6.00 Build 0)  -->
<svg version="1.1" id="Layer_1" xmlns="http://www.w3.org/2000/svg" xmlns:xlink="http://www.w3.org/1999/xlink" x="0px" y="0px"
	 viewBox="-238 242 21.5 17" enable-background="new -238 242 21.5 17" xml:space="preserve">
<g id="HamBu_Menu" transform="translate(1.5 1.5)">
	<g id="Path">
		<path d="M-219.5,243.5H-238c-0.8,0-1.5-0.7-1.5-1.5s0.7-1.5,1.5-1.5h18.5c0.8,0,1.5,0.7,1.5,1.5S-218.7,243.5-219.5,243.5z"/>
	</g>
	<g id="Path-2">
		<path d="M-219.5,250.5h-12c-0.8,0-1.5-0.7-1.5-1.5c0-0.8,0.7-1.5,1.5-1.5h12c0.8,0,1.5,0.7,1.5,1.5
			C-218,249.8-218.7,250.5-219.5,250.5z"/>
	</g>
	<g id="Path-3">
		<path d="M-237.5,250.5h-0.1c-0.8,0-1.5-0.7-1.5-1.5c0-0.8,0.7-1.5,1.5-1.5h0.1c0.8,0,1.5,0.7,1.5,1.5
			C-236,249.8-236.7,250.5-237.5,250.5z"/>
	</g>
	<g id="Path-4">
		<path d="M-219.5,257.5H-238c-0.8,0-1.5-0.7-1.5-1.5s0.7-1.5,1.5-1.5h18.5c0.8,0,1.5,0.7,1.5,1.5S-218.7,257.5-219.5,257.5z"/>
	</g>
</g>
</svg>
